<?xml version="1.0" encoding="UTF-8"?>
<!DOCTYPE svg PUBLIC "-//W3C//DTD SVG 1.1//EN" "http://www.w3.org/Graphics/SVG/1.1/DTD/svg11.dtd">
<svg xmlns="http://www.w3.org/2000/svg" version="1.1" width="32px" height="32px" style="shape-rendering:geometricPrecision; text-rendering:geometricPrecision; image-rendering:optimizeQuality; fill-rule:evenodd; clip-rule:evenodd" xmlns:xlink="http://www.w3.org/1999/xlink">
<g><path style="opacity:0.825" fill="#fefffe" d="M 31.5,10.5 C 31.5,13.8333 31.5,17.1667 31.5,20.5C 28.9193,24.2939 25.2526,26.2939 20.5,26.5C 15.9097,26.1459 11.243,25.9793 6.5,26C 3.37935,25.0332 1.04602,23.1999 -0.5,20.5C -0.5,17.1667 -0.5,13.8333 -0.5,10.5C 2.08074,6.70605 5.74741,4.70605 10.5,4.5C 15.0903,4.85406 19.757,5.02073 24.5,5C 27.6206,5.96679 29.954,7.80012 31.5,10.5 Z M 6.5,8.5 C 8.28801,8.21478 9.95467,8.54811 11.5,9.5C 8.83333,13.5 8.83333,17.5 11.5,21.5C 6.50196,22.8735 3.50196,20.8735 2.5,15.5C 3.07073,12.6873 4.40406,10.354 6.5,8.5 Z M 13.5,14.5 C 14.9778,14.238 16.3112,14.5713 17.5,15.5C 16.8333,15.8333 16.1667,16.1667 15.5,16.5C 14.2867,16.2528 13.62,15.5862 13.5,14.5 Z"/></g>
</svg>
