<?xml version="1.0" encoding="UTF-8"?>
<!DOCTYPE svg PUBLIC "-//W3C//DTD SVG 1.1//EN" "http://www.w3.org/Graphics/SVG/1.1/DTD/svg11.dtd">
<svg xmlns="http://www.w3.org/2000/svg" version="1.1" width="32px" height="32px" style="shape-rendering:geometricPrecision; text-rendering:geometricPrecision; image-rendering:optimizeQuality; fill-rule:evenodd; clip-rule:evenodd" xmlns:xlink="http://www.w3.org/1999/xlink">
<g><path style="opacity:0.808" fill="#fefffe" d="M 2.5,-0.5 C 8.5,-0.5 14.5,-0.5 20.5,-0.5C 21.4756,0.814858 22.4756,2.14819 23.5,3.5C 26.6597,3.98306 29.3264,5.31639 31.5,7.5C 31.5,15.5 31.5,23.5 31.5,31.5C 29.5,31.5 27.5,31.5 25.5,31.5C 24.4264,30.1154 23.0931,28.9487 21.5,28C 17.8333,27.6667 14.1667,27.3333 10.5,27C 9.354,26.3551 8.354,25.5217 7.5,24.5C 4.95673,26.4779 2.29007,26.8113 -0.5,25.5C -0.5,17.8333 -0.5,10.1667 -0.5,2.5C 0.5,1.5 1.5,0.5 2.5,-0.5 Z M 4.5,2.5 C 9.17853,2.33418 13.8452,2.50085 18.5,3C 24.3404,15.6574 20.3404,21.3241 6.5,20C 5.42138,20.956 4.25471,21.7894 3,22.5C 2.33333,16.5 2.33333,10.5 3,4.5C 3.71719,3.9558 4.21719,3.28913 4.5,2.5 Z M 23.5,7.5 C 25.4085,7.88344 26.9085,8.88344 28,10.5C 28.8299,16.1959 28.6632,21.8625 27.5,27.5C 26.2997,26.4688 24.9663,25.6355 23.5,25C 19.3808,24.8568 15.3808,24.1901 11.5,23C 22.6405,23.672 26.6405,18.5053 23.5,7.5 Z"/></g>
<g><path style="opacity:0.663" fill="#fefffe" d="M 8.5,4.5 C 15.7459,4.13315 17.4126,7.13315 13.5,13.5C 12.3112,14.4287 10.9778,14.762 9.5,14.5C 9.33003,13.1779 9.66337,12.0113 10.5,11C 9.55198,10.5172 8.55198,10.3505 7.5,10.5C 7.32526,8.3792 7.65859,6.3792 8.5,4.5 Z"/></g>
<g><path style="opacity:0.462" fill="#fefffe" d="M 9.5,15.5 C 10.8333,15.5 12.1667,15.5 13.5,15.5C 13.5,16.5 13.5,17.5 13.5,18.5C 12.1667,18.5 10.8333,18.5 9.5,18.5C 9.5,17.5 9.5,16.5 9.5,15.5 Z"/></g>
</svg>
