<?xml version="1.0" encoding="UTF-8"?>
<!DOCTYPE svg PUBLIC "-//W3C//DTD SVG 1.1//EN" "http://www.w3.org/Graphics/SVG/1.1/DTD/svg11.dtd">
<svg xmlns="http://www.w3.org/2000/svg" version="1.1" width="512px" height="512px" style="shape-rendering:geometricPrecision; text-rendering:geometricPrecision; image-rendering:optimizeQuality; fill-rule:evenodd; clip-rule:evenodd" xmlns:xlink="http://www.w3.org/1999/xlink">
<g><path style="opacity:0.991" fill="#43809f" d="M 180.5,-0.5 C 182.5,-0.5 184.5,-0.5 186.5,-0.5C 265.093,9.87086 321.259,50.8709 355,122.5C 358.212,130.3 360.712,138.3 362.5,146.5C 336.939,80.1977 288.939,41.6977 218.5,31C 207.326,30.1743 196.326,30.341 185.5,31.5C 116.249,39.9214 68.0825,76.2547 41,140.5C 20.027,204.737 31.027,262.737 74,314.5C 104.15,346.824 141.317,365.158 185.5,369.5C 257.109,373.115 311.609,344.448 349,283.5C 354.202,273.691 358.702,263.691 362.5,253.5C 345.53,313.885 308.53,357.385 251.5,384C 230.207,392.988 208.207,398.821 185.5,401.5C 182.57,400.701 179.57,400.368 176.5,400.5C 171.293,399.508 165.96,398.508 160.5,397.5C 92.4022,382.227 43.9022,342.894 15,279.5C 7.14572,260.41 1.97905,240.744 -0.5,220.5C -0.5,206.833 -0.5,193.167 -0.5,179.5C 10.0805,104.769 49.0805,50.6026 116.5,17C 137.1,8.01928 158.434,2.18594 180.5,-0.5 Z"/></g>
<g><path style="opacity:0.997" fill="#3a7190" d="M 186.5,-0.5 C 197.833,-0.5 209.167,-0.5 220.5,-0.5C 300.069,10.5738 355.903,52.9071 388,126.5C 393.085,140.176 396.919,154.176 399.5,168.5C 399.668,174.034 400.335,179.367 401.5,184.5C 401.5,189.167 401.5,193.833 401.5,198.5C 401.5,203.833 401.5,209.167 401.5,214.5C 400.906,219.186 400.239,223.853 399.5,228.5C 398.756,233.885 397.756,239.218 396.5,244.5C 389.321,277.19 374.987,306.19 353.5,331.5C 345.833,338.5 338.5,345.833 331.5,353.5C 304.168,376.497 272.834,391.497 237.5,398.5C 232.137,398.949 226.804,399.616 221.5,400.5C 216.87,401.229 212.203,401.563 207.5,401.5C 202.167,401.5 196.833,401.5 191.5,401.5C 189.5,401.5 187.5,401.5 185.5,401.5C 208.207,398.821 230.207,392.988 251.5,384C 308.53,357.385 345.53,313.885 362.5,253.5C 373.095,217.83 373.095,182.163 362.5,146.5C 360.712,138.3 358.212,130.3 355,122.5C 321.259,50.8709 265.093,9.87086 186.5,-0.5 Z"/></g>
<g><path style="opacity:1" fill="#e3e3e3" d="M 185.5,31.5 C 196.326,30.341 207.326,30.1743 218.5,31C 288.939,41.6977 336.939,80.1977 362.5,146.5C 373.095,182.163 373.095,217.83 362.5,253.5C 358.702,263.691 354.202,273.691 349,283.5C 311.609,344.448 257.109,373.115 185.5,369.5C 252.185,360.63 299.352,325.63 327,264.5C 350.415,198.589 339.748,138.922 295,85.5C 265.264,54.0495 228.764,36.0495 185.5,31.5 Z"/></g>
<g><path style="opacity:1" fill="#f2f2f2" d="M 185.5,31.5 C 228.764,36.0495 265.264,54.0495 295,85.5C 339.748,138.922 350.415,198.589 327,264.5C 299.352,325.63 252.185,360.63 185.5,369.5C 141.317,365.158 104.15,346.824 74,314.5C 31.027,262.737 20.027,204.737 41,140.5C 68.0825,76.2547 116.249,39.9214 185.5,31.5 Z"/></g>
<g><path style="opacity:1" fill="#f78e37" d="M 230.5,70.5 C 221.167,70.5 211.833,70.5 202.5,70.5C 202.5,112.5 202.5,154.5 202.5,196.5C 192.5,196.5 182.5,196.5 172.5,196.5C 172.333,154.832 172.5,113.165 173,71.5C 173.5,71 174,70.5 174.5,70C 193.338,69.1712 212.005,69.3378 230.5,70.5 Z"/></g>
<g><path style="opacity:1" fill="#f7711e" d="M 230.5,70.5 C 232.017,70.5106 233.184,71.1772 234,72.5C 234.5,98.1645 234.667,123.831 234.5,149.5C 234.5,165.167 234.5,180.833 234.5,196.5C 223.833,196.5 213.167,196.5 202.5,196.5C 202.5,154.5 202.5,112.5 202.5,70.5C 211.833,70.5 221.167,70.5 230.5,70.5 Z"/></g>
<g><path style="opacity:1" fill="#2ecef5" d="M 169.5,109.5 C 160.167,109.5 150.833,109.5 141.5,109.5C 141.5,138.5 141.5,167.5 141.5,196.5C 131.167,196.5 120.833,196.5 110.5,196.5C 110.333,167.831 110.5,139.165 111,110.5C 111.75,109.874 112.584,109.374 113.5,109C 132.338,108.171 151.005,108.338 169.5,109.5 Z"/></g>
<g><path style="opacity:1" fill="#22b5ed" d="M 169.5,109.5 C 170.117,109.611 170.617,109.944 171,110.5C 171.5,139.165 171.667,167.831 171.5,196.5C 161.5,196.5 151.5,196.5 141.5,196.5C 141.5,167.5 141.5,138.5 141.5,109.5C 150.833,109.5 160.167,109.5 169.5,109.5 Z"/></g>
<g><path style="opacity:1" fill="#7be492" d="M 264.5,148.5 C 264.5,164.5 264.5,180.5 264.5,196.5C 254.5,196.5 244.5,196.5 234.5,196.5C 234.5,180.833 234.5,165.167 234.5,149.5C 244.418,148.526 254.418,148.193 264.5,148.5 Z"/></g>
<g><path style="opacity:1" fill="#45d987" d="M 264.5,148.5 C 274.749,148.181 284.916,148.514 295,149.5C 295.5,165.163 295.667,180.83 295.5,196.5C 285.167,196.5 274.833,196.5 264.5,196.5C 264.5,180.5 264.5,164.5 264.5,148.5 Z"/></g>
<g><path style="opacity:0.939" fill="#45d887" d="M 399.5,168.5 C 418.836,168.333 438.17,168.5 457.5,169C 459.333,169.5 460.5,170.667 461,172.5C 462.992,178.337 461.158,182.171 455.5,184C 437.503,184.5 419.503,184.667 401.5,184.5C 400.335,179.367 399.668,174.034 399.5,168.5 Z"/></g>
<g><path style="opacity:1" fill="#43809f" d="M 110.5,196.5 C 120.833,196.5 131.167,196.5 141.5,196.5C 151.5,196.5 161.5,196.5 171.5,196.5C 171.833,196.5 172.167,196.5 172.5,196.5C 182.5,196.5 192.5,196.5 202.5,196.5C 213.167,196.5 223.833,196.5 234.5,196.5C 244.5,196.5 254.5,196.5 264.5,196.5C 274.833,196.5 285.167,196.5 295.5,196.5C 303.279,196.068 310.946,196.568 318.5,198C 322.875,203.121 322.209,207.455 316.5,211C 240.833,211.667 165.167,211.667 89.5,211C 83.7913,207.455 83.1246,203.121 87.5,198C 95.0542,196.568 102.721,196.068 110.5,196.5 Z"/></g>
<g><path style="opacity:0.937" fill="#45d987" d="M 401.5,198.5 C 432.168,198.333 462.835,198.5 493.5,199C 498.224,201.435 499.724,205.269 498,210.5C 496.786,212.049 495.286,213.215 493.5,214C 462.835,214.5 432.168,214.667 401.5,214.5C 401.5,209.167 401.5,203.833 401.5,198.5 Z"/></g>
<g><path style="opacity:0.986" fill="#44d887" d="M 399.5,228.5 C 418.17,228.333 436.836,228.5 455.5,229C 460.906,230.98 462.739,234.814 461,240.5C 460.5,242.333 459.333,243.5 457.5,244C 437.169,244.5 416.836,244.667 396.5,244.5C 397.756,239.218 398.756,233.885 399.5,228.5 Z"/></g>
<g><path style="opacity:1" fill="#2fcef5" d="M 225.5,230.5 C 229.516,229.9 233.016,230.9 236,233.5C 242.002,248.008 247.502,262.675 252.5,277.5C 265.837,277.333 279.171,277.5 292.5,278C 299.053,282.527 299.053,287.194 292.5,292C 276.5,292.667 260.5,292.667 244.5,292C 243.333,290.833 242.167,289.667 241,288.5C 237.646,278.931 233.813,269.598 229.5,260.5C 221.394,281.048 213.561,301.715 206,322.5C 200.408,328.315 195.742,327.648 192,320.5C 186.53,304.424 180.864,288.424 175,272.5C 172,277.833 169,283.167 166,288.5C 164.786,290.049 163.286,291.215 161.5,292C 146.167,292.667 130.833,292.667 115.5,292C 108.833,287.333 108.833,282.667 115.5,278C 128.5,277.667 141.5,277.333 154.5,277C 160.047,268.076 165.213,258.91 170,249.5C 175.441,245.074 180.108,245.741 184,251.5C 188.874,265.957 194.041,280.291 199.5,294.5C 207.481,275.062 214.981,255.395 222,235.5C 222.997,233.677 224.164,232.01 225.5,230.5 Z"/></g>
<g><path style="opacity:0.971" fill="#44809f" d="M 353.5,331.5 C 366.167,343.5 378.5,355.833 390.5,368.5C 386.897,373.442 382.897,378.108 378.5,382.5C 375.436,385.57 372.103,388.237 368.5,390.5C 355.833,378.5 343.5,366.167 331.5,353.5C 338.5,345.833 345.833,338.5 353.5,331.5 Z"/></g>
<g><path style="opacity:1" fill="#f6701c" d="M 425.5,381.5 C 418.527,389.14 411.194,396.473 403.5,403.5C 397.73,397.229 391.73,391.062 385.5,385C 383.559,383.097 381.226,382.264 378.5,382.5C 382.897,378.108 386.897,373.442 390.5,368.5C 393.297,366.205 395.964,363.705 398.5,361C 400.833,360.333 403.167,360.333 405.5,361C 412.369,367.702 419.036,374.535 425.5,381.5 Z"/></g>
<g><path style="opacity:0.978" fill="#f68e36" d="M 378.5,382.5 C 381.226,382.264 383.559,383.097 385.5,385C 391.73,391.062 397.73,397.229 403.5,403.5C 403.5,403.833 403.5,404.167 403.5,404.5C 396.167,411.5 388.833,418.5 381.5,425.5C 374.535,419.036 367.702,412.369 361,405.5C 360.333,403.167 360.333,400.833 361,398.5C 363.705,395.964 366.205,393.297 368.5,390.5C 372.103,388.237 375.436,385.57 378.5,382.5 Z"/></g>
<g><path style="opacity:1" fill="#4bd785" d="M 425.5,381.5 C 433.167,388.5 440.5,395.833 447.5,403.5C 440.5,410.833 433.5,418.167 426.5,425.5C 426.167,425.5 425.833,425.5 425.5,425.5C 418.167,418.5 410.833,411.5 403.5,404.5C 403.5,404.167 403.5,403.833 403.5,403.5C 411.194,396.473 418.527,389.14 425.5,381.5 Z"/></g>
<g><path style="opacity:0.977" fill="#45d887" d="M 160.5,397.5 C 165.96,398.508 171.293,399.508 176.5,400.5C 176.667,418.836 176.5,437.17 176,455.5C 173.005,459.723 169.171,460.889 164.5,459C 162.951,457.786 161.785,456.286 161,454.5C 160.5,435.503 160.333,416.503 160.5,397.5 Z"/></g>
<g><path style="opacity:0.937" fill="#45d987" d="M 237.5,398.5 C 237.667,417.17 237.5,435.836 237,454.5C 232.394,461.987 227.394,462.321 222,455.5C 221.5,437.17 221.333,418.836 221.5,400.5C 226.804,399.616 232.137,398.949 237.5,398.5 Z"/></g>
<g><path style="opacity:0.997" fill="#45d887" d="M 191.5,401.5 C 196.833,401.5 202.167,401.5 207.5,401.5C 207.667,430.835 207.5,460.169 207,489.5C 203.395,497.421 198.395,498.421 192,492.5C 191.5,462.168 191.333,431.835 191.5,401.5 Z"/></g>
<g><path style="opacity:1" fill="#7ee290" d="M 403.5,404.5 C 410.833,411.5 418.167,418.5 425.5,425.5C 418.5,433.167 411.167,440.5 403.5,447.5C 395.833,440.5 388.5,433.167 381.5,425.5C 388.833,418.5 396.167,411.5 403.5,404.5 Z"/></g>
<g><path style="opacity:1" fill="#f76f1b" d="M 447.5,403.5 C 468.833,424.5 490.167,445.5 511.5,466.5C 511.5,469.167 511.5,471.833 511.5,474.5C 503.833,481.833 496.167,489.167 488.5,496.5C 490.134,492.838 489.634,489.505 487,486.5C 466.74,466.406 446.574,446.073 426.5,425.5C 433.5,418.167 440.5,410.833 447.5,403.5 Z"/></g>
<g><path style="opacity:0.977" fill="#f78d35" d="M 425.5,425.5 C 425.833,425.5 426.167,425.5 426.5,425.5C 446.574,446.073 466.74,466.406 487,486.5C 489.634,489.505 490.134,492.838 488.5,496.5C 483.833,501.5 479.167,506.5 474.5,511.5C 471.833,511.5 469.167,511.5 466.5,511.5C 445.5,490.167 424.5,468.833 403.5,447.5C 411.167,440.5 418.5,433.167 425.5,425.5 Z"/></g>
</svg>
