<?xml version="1.0" encoding="UTF-8"?>
<!DOCTYPE svg PUBLIC "-//W3C//DTD SVG 1.1//EN" "http://www.w3.org/Graphics/SVG/1.1/DTD/svg11.dtd">
<svg xmlns="http://www.w3.org/2000/svg" version="1.1" width="512px" height="512px" style="shape-rendering:geometricPrecision; text-rendering:geometricPrecision; image-rendering:optimizeQuality; fill-rule:evenodd; clip-rule:evenodd" xmlns:xlink="http://www.w3.org/1999/xlink">
<g><path style="opacity:0.979" fill="#fef055" d="M 88.5,-0.5 C 93.5,-0.5 98.5,-0.5 103.5,-0.5C 124.071,9.04275 129.238,24.0427 119,44.5C 116.253,47.7537 113.086,50.4203 109.5,52.5C 100.814,56.4428 92.1471,56.4428 83.5,52.5C 73.3722,47.3478 68.0389,39.0144 67.5,27.5C 68.5137,13.5083 75.5137,4.175 88.5,-0.5 Z"/></g>
<g><path style="opacity:0.985" fill="#fdf056" d="M 194.5,-0.5 C 199.5,-0.5 204.5,-0.5 209.5,-0.5C 220.818,3.07883 227.818,10.7455 230.5,22.5C 229.515,26.6344 229.182,30.9677 229.5,35.5C 226.302,42.7011 221.302,48.3677 214.5,52.5C 206.151,56.4363 197.818,56.4363 189.5,52.5C 186.358,50.4195 183.358,48.0862 180.5,45.5C 178.216,41.9268 176.216,38.2601 174.5,34.5C 171.89,17.461 178.556,5.79437 194.5,-0.5 Z"/></g>
<g><path style="opacity:0.987" fill="#fefab2" d="M 301.5,-0.5 C 306.5,-0.5 311.5,-0.5 316.5,-0.5C 332.206,5.90355 338.873,17.5702 336.5,34.5C 334.784,38.2601 332.784,41.9268 330.5,45.5C 327.642,48.0862 324.642,50.4195 321.5,52.5C 313.118,56.3622 304.784,56.3622 296.5,52.5C 288.828,48.1734 283.828,41.84 281.5,33.5C 281.815,29.6286 281.482,25.9619 280.5,22.5C 283.182,10.7455 290.182,3.07883 301.5,-0.5 Z"/></g>
<g><path style="opacity:0.98" fill="#fffbb2" d="M 406.5,-0.5 C 411.833,-0.5 417.167,-0.5 422.5,-0.5C 439.468,6.69823 445.635,19.3649 441,37.5C 438.316,44.249 433.816,49.249 427.5,52.5C 423.231,53.8023 418.898,54.8023 414.5,55.5C 409.959,55.281 405.626,54.281 401.5,52.5C 388.562,45.2737 383.728,34.2737 387,19.5C 390.351,9.64981 396.851,2.98314 406.5,-0.5 Z"/></g>
<g><path style="opacity:0.989" fill="#202f79" d="M 280.5,22.5 C 281.482,25.9619 281.815,29.6286 281.5,33.5C 279.346,36.8049 276.346,39.3049 272.5,41C 263.618,48.2807 257.951,57.4473 255.5,68.5C 253.826,56.6504 248.159,47.1504 238.5,40C 235.473,38.4867 232.473,36.9867 229.5,35.5C 229.182,30.9677 229.515,26.6344 230.5,22.5C 247.167,21.1667 263.833,21.1667 280.5,22.5 Z"/></g>
<g><path style="opacity:0.986" fill="#1d2e79" d="M 336.5,34.5 C 359.775,42.9688 381.442,54.3021 401.5,68.5C 401.5,79.8333 401.5,91.1667 401.5,102.5C 395.017,88.7401 384.35,79.9068 369.5,76C 361.729,75.9336 354.062,75.2669 346.5,74C 341.972,69.4471 339.139,63.9471 338,57.5C 335.739,53.3037 333.239,49.3037 330.5,45.5C 332.784,41.9268 334.784,38.2601 336.5,34.5 Z"/></g>
<g><path style="opacity:0.987" fill="#1f2e79" d="M 174.5,34.5 C 176.216,38.2601 178.216,41.9268 180.5,45.5C 174.536,52.7675 170.702,61.1008 169,70.5C 168.535,71.9308 167.701,73.0975 166.5,74C 147.926,71.9703 131.759,77.137 118,89.5C 114.91,93.7387 112.077,98.072 109.5,102.5C 109.5,91.1667 109.5,79.8333 109.5,68.5C 129.558,54.3021 151.225,42.9688 174.5,34.5 Z"/></g>
<g><path style="opacity:1" fill="#fd3d96" d="M 229.5,35.5 C 232.473,36.9867 235.473,38.4867 238.5,40C 248.159,47.1504 253.826,56.6504 255.5,68.5C 255.5,85.8333 255.5,103.167 255.5,120.5C 241.833,120.5 228.167,120.5 214.5,120.5C 214.5,97.8333 214.5,75.1667 214.5,52.5C 221.302,48.3677 226.302,42.7011 229.5,35.5 Z"/></g>
<g><path style="opacity:1" fill="#07bffa" d="M 281.5,33.5 C 283.828,41.84 288.828,48.1734 296.5,52.5C 296.5,75.1667 296.5,97.8333 296.5,120.5C 282.833,120.5 269.167,120.5 255.5,120.5C 255.5,103.167 255.5,85.8333 255.5,68.5C 257.951,57.4473 263.618,48.2807 272.5,41C 276.346,39.3049 279.346,36.8049 281.5,33.5 Z"/></g>
<g><path style="opacity:1" fill="#fd3d96" d="M 180.5,45.5 C 183.358,48.0862 186.358,50.4195 189.5,52.5C 189.5,75.1667 189.5,97.8333 189.5,120.5C 168.528,123.568 154.028,134.901 146,154.5C 134,144.5 122,134.5 110,124.5C 109.5,117.174 109.334,109.841 109.5,102.5C 112.077,98.072 114.91,93.7387 118,89.5C 131.759,77.137 147.926,71.9703 166.5,74C 167.701,73.0975 168.535,71.9308 169,70.5C 170.702,61.1008 174.536,52.7675 180.5,45.5 Z"/></g>
<g><path style="opacity:1" fill="#06bffb" d="M 330.5,45.5 C 333.239,49.3037 335.739,53.3037 338,57.5C 339.139,63.9471 341.972,69.4471 346.5,74C 354.062,75.2669 361.729,75.9336 369.5,76C 384.35,79.9068 395.017,88.7401 401.5,102.5C 401.666,109.841 401.5,117.174 401,124.5C 388.96,134.712 376.793,144.712 364.5,154.5C 356.751,135.107 342.417,123.774 321.5,120.5C 321.5,97.8333 321.5,75.1667 321.5,52.5C 324.642,50.4195 327.642,48.0862 330.5,45.5 Z"/></g>
<g><path style="opacity:1" fill="#fec142" d="M 83.5,52.5 C 92.1471,56.4428 100.814,56.4428 109.5,52.5C 109.5,57.8333 109.5,63.1667 109.5,68.5C 109.5,79.8333 109.5,91.1667 109.5,102.5C 109.334,109.841 109.5,117.174 110,124.5C 122,134.5 134,144.5 146,154.5C 154.028,134.901 168.528,123.568 189.5,120.5C 189.5,97.8333 189.5,75.1667 189.5,52.5C 197.818,56.4363 206.151,56.4363 214.5,52.5C 214.5,75.1667 214.5,97.8333 214.5,120.5C 228.167,120.5 241.833,120.5 255.5,120.5C 248.443,126.628 245.943,134.295 248,143.5C 249.459,146.756 251.626,149.423 254.5,151.5C 276.121,152.489 297.788,152.822 319.5,152.5C 326.643,152.488 331.476,155.821 334,162.5C 334.5,186.164 334.667,209.831 334.5,233.5C 334.667,255.836 334.5,278.169 334,300.5C 332.141,305.026 328.974,308.192 324.5,310C 301.833,310.333 279.167,310.667 256.5,311C 245.319,320.948 244.652,331.448 254.5,342.5C 231.498,342.667 208.498,342.5 185.5,342C 162.443,336.943 148.943,322.776 145,299.5C 144.667,261.5 144.333,223.5 144,185.5C 126.96,170.955 109.794,156.622 92.5,142.5C 89.1416,140.3 86.6416,137.3 85,133.5C 84.8311,119.327 84.3311,105.327 83.5,91.5C 83.5,78.5 83.5,65.5 83.5,52.5 Z"/></g>
<g><path style="opacity:0.991" fill="#fbef57" d="M 401.5,52.5 C 405.626,54.281 409.959,55.281 414.5,55.5C 418.898,54.8023 423.231,53.8023 427.5,52.5C 427.5,65.5 427.5,78.5 427.5,91.5C 426.669,105.327 426.169,119.327 426,133.5C 424.358,137.3 421.858,140.3 418.5,142.5C 409.849,149.154 401.516,156.154 393.5,163.5C 384.5,170.833 375.5,178.167 366.5,185.5C 367.003,175.046 366.336,164.713 364.5,154.5C 376.793,144.712 388.96,134.712 401,124.5C 401.5,117.174 401.666,109.841 401.5,102.5C 401.5,91.1667 401.5,79.8333 401.5,68.5C 401.5,63.1667 401.5,57.8333 401.5,52.5 Z"/></g>
<g><path style="opacity:1" fill="#fdf056" d="M 296.5,52.5 C 304.784,56.3622 313.118,56.3622 321.5,52.5C 321.5,75.1667 321.5,97.8333 321.5,120.5C 310.448,130.61 309.781,141.276 319.5,152.5C 297.788,152.822 276.121,152.489 254.5,151.5C 251.626,149.423 249.459,146.756 248,143.5C 245.943,134.295 248.443,126.628 255.5,120.5C 269.167,120.5 282.833,120.5 296.5,120.5C 296.5,97.8333 296.5,75.1667 296.5,52.5 Z"/></g>
<g><path style="opacity:0.987" fill="#1e2e79" d="M 427.5,91.5 C 469.865,133.575 494.032,184.575 500,244.5C 503.75,287.331 496.917,328.331 479.5,367.5C 478.003,362.179 476.17,356.846 474,351.5C 469.826,344.484 465.159,337.817 460,331.5C 459.503,328.854 459.336,326.187 459.5,323.5C 465.205,315.939 470.372,307.939 475,299.5C 484.745,272.078 478.911,248.578 457.5,229C 454.941,227.223 452.274,225.723 449.5,224.5C 441.698,220.897 438.698,214.897 440.5,206.5C 451.055,185.437 448.055,166.603 431.5,150C 427.398,146.954 423.065,144.454 418.5,142.5C 421.858,140.3 424.358,137.3 426,133.5C 426.169,119.327 426.669,105.327 427.5,91.5 Z"/></g>
<g><path style="opacity:0.988" fill="#1f2e78" d="M 83.5,91.5 C 84.3311,105.327 84.8311,119.327 85,133.5C 86.6416,137.3 89.1416,140.3 92.5,142.5C 65.1018,156.689 57.7684,178.022 70.5,206.5C 72.3141,214.872 69.3141,220.872 61.5,224.5C 39.7763,237.612 29.943,256.945 32,282.5C 33.4681,297.102 39.4681,309.435 50,319.5C 51.5204,323.375 51.8538,327.375 51,331.5C 47.3333,336.5 43.6667,341.5 40,346.5C 36.0569,353.187 33.2235,360.187 31.5,367.5C 10.9821,320.668 5.14874,272.001 14,221.5C 23.8707,170.742 47.0374,127.409 83.5,91.5 Z"/></g>
<g><path style="opacity:1" fill="#fefab2" d="M 321.5,120.5 C 342.417,123.774 356.751,135.107 364.5,154.5C 366.336,164.713 367.003,175.046 366.5,185.5C 366.5,201.5 366.5,217.5 366.5,233.5C 356.037,245.375 345.37,245.375 334.5,233.5C 334.667,209.831 334.5,186.164 334,162.5C 331.476,155.821 326.643,152.488 319.5,152.5C 309.781,141.276 310.448,130.61 321.5,120.5 Z"/></g>
<g><path style="opacity:1" fill="#fd3d96" d="M 92.5,142.5 C 109.794,156.622 126.96,170.955 144,185.5C 144.333,223.5 144.667,261.5 145,299.5C 148.943,322.776 162.443,336.943 185.5,342C 208.498,342.5 231.498,342.667 254.5,342.5C 254.833,342.5 255.167,342.5 255.5,342.5C 255.5,363.5 255.5,384.5 255.5,405.5C 248.995,379.831 232.662,364.664 206.5,360C 192.073,359.035 177.74,359.368 163.5,361C 156.263,368.58 157.263,374.913 166.5,380C 180.167,380.333 193.833,380.667 207.5,381C 220.796,384.295 229.63,392.462 234,405.5C 234.667,414.833 234.667,424.167 234,433.5C 228.925,451.965 216.759,461.131 197.5,461C 196.016,461.662 194.683,462.496 193.5,463.5C 180.357,457.89 175.023,447.89 177.5,433.5C 184.354,433.824 191.021,433.491 197.5,432.5C 204.585,429.229 206.419,423.895 203,416.5C 201.421,414.959 199.587,413.792 197.5,413C 185.167,412.333 172.833,412.333 160.5,413C 153.921,414.245 147.921,416.745 142.5,420.5C 130.625,415.781 123.125,407.114 120,394.5C 116.952,378.576 118.785,363.243 125.5,348.5C 134.255,346.982 137.422,341.982 135,333.5C 133.833,331.667 132.333,330.167 130.5,329C 112.658,328.491 103.491,319.324 103,301.5C 101.52,298.183 99.0198,296.183 95.5,295.5C 84.9374,290.107 78.4374,281.44 76,269.5C 74.6859,257.006 77.1859,245.34 83.5,234.5C 84.9492,233.828 86.2825,233.161 87.5,232.5C 91.417,231.752 93.917,229.418 95,225.5C 95.1353,215.974 90.302,211.474 80.5,212C 76.9518,210.396 73.6184,208.563 70.5,206.5C 57.7684,178.022 65.1018,156.689 92.5,142.5 Z"/></g>
<g><path style="opacity:1" fill="#63f8e9" d="M 418.5,142.5 C 423.065,144.454 427.398,146.954 431.5,150C 448.055,166.603 451.055,185.437 440.5,206.5C 435.218,210.493 429.218,212.659 422.5,213C 420.004,214.331 418.004,216.164 416.5,218.5C 393.76,206.976 386.427,188.976 394.5,164.5C 394.376,163.893 394.043,163.56 393.5,163.5C 401.516,156.154 409.849,149.154 418.5,142.5 Z"/></g>
<g><path style="opacity:1" fill="#fc8d3e" d="M 241.5,182.5 C 238.15,182.335 234.817,182.502 231.5,183C 229.714,183.785 228.214,184.951 227,186.5C 216.804,212.088 206.804,237.755 197,263.5C 193.733,275.474 198.233,280.641 210.5,279C 211.931,278.535 213.097,277.701 214,276.5C 215.699,273.065 217.199,269.565 218.5,266C 230.5,265.333 242.5,265.333 254.5,266C 255.878,269.969 257.544,273.803 259.5,277.5C 251.645,283.227 248.811,290.893 251,300.5C 251.973,303.779 253.473,306.779 255.5,309.5C 232.174,310.666 208.84,310.833 185.5,310C 181.612,307.778 178.779,304.612 177,300.5C 176.333,254.5 176.333,208.5 177,162.5C 178.833,158 182,154.833 186.5,153C 209.167,152.333 231.833,152.333 254.5,153C 244.601,160.304 240.268,170.137 241.5,182.5 Z"/></g>
<g><path style="opacity:1" fill="#2fd0e1" d="M 393.5,163.5 C 394.043,163.56 394.376,163.893 394.5,164.5C 386.427,188.976 393.76,206.976 416.5,218.5C 414.411,228.305 418.411,232.972 428.5,232.5C 421.647,241.569 417.48,251.902 416,263.5C 415.333,271.5 415.333,279.5 416,287.5C 416.494,290.896 417.994,293.563 420.5,295.5C 415.874,294.7 412.04,296.034 409,299.5C 408.604,318.228 399.104,328.061 380.5,329C 377.979,330.558 376.312,332.725 375.5,335.5C 373.407,334.955 371.407,334.122 369.5,333C 365.445,328.97 361.779,324.804 358.5,320.5C 362.479,314.067 364.979,307.067 366,299.5C 366.5,277.503 366.667,255.503 366.5,233.5C 366.5,217.5 366.5,201.5 366.5,185.5C 375.5,178.167 384.5,170.833 393.5,163.5 Z"/></g>
<g><path style="opacity:1" fill="#e8f6f8" d="M 241.5,182.5 C 244.139,184.309 246.306,186.642 248,189.5C 257.667,215.167 267.333,240.833 277,266.5C 276.858,278.832 271.024,282.499 259.5,277.5C 257.544,273.803 255.878,269.969 254.5,266C 242.5,265.333 230.5,265.333 218.5,266C 217.199,269.565 215.699,273.065 214,276.5C 213.097,277.701 211.931,278.535 210.5,279C 198.233,280.641 193.733,275.474 197,263.5C 206.804,237.755 216.804,212.088 227,186.5C 228.214,184.951 229.714,183.785 231.5,183C 234.817,182.502 238.15,182.335 241.5,182.5 Z"/></g>
<g><path style="opacity:1" fill="#e8f7fb" d="M 294.5,182.5 C 300.166,181.278 304.666,182.945 308,187.5C 308.667,216.5 308.667,245.5 308,274.5C 303.836,279.711 298.67,280.878 292.5,278C 290.513,276.681 289.346,274.848 289,272.5C 288.333,244.5 288.333,216.5 289,188.5C 290.36,185.977 292.193,183.977 294.5,182.5 Z"/></g>
<g><path style="opacity:1" fill="#be0c73" d="M 70.5,206.5 C 73.6184,208.563 76.9518,210.396 80.5,212C 90.302,211.474 95.1353,215.974 95,225.5C 93.917,229.418 91.417,231.752 87.5,232.5C 77.6888,233.227 69.0221,230.561 61.5,224.5C 69.3141,220.872 72.3141,214.872 70.5,206.5 Z"/></g>
<g><path style="opacity:1" fill="#28a6fe" d="M 440.5,206.5 C 438.698,214.897 441.698,220.897 449.5,224.5C 443.351,229.11 436.351,231.776 428.5,232.5C 418.411,232.972 414.411,228.305 416.5,218.5C 418.004,216.164 420.004,214.331 422.5,213C 429.218,212.659 435.218,210.493 440.5,206.5 Z"/></g>
<g><path style="opacity:1" fill="#fc9044" d="M 246.5,244.5 C 239.833,244.5 233.167,244.5 226.5,244.5C 229.549,236.067 232.882,227.733 236.5,219.5C 240.222,227.664 243.555,235.997 246.5,244.5 Z"/></g>
<g><path style="opacity:0.996" fill="#e41e82" d="M 61.5,224.5 C 69.0221,230.561 77.6888,233.227 87.5,232.5C 86.2825,233.161 84.9492,233.828 83.5,234.5C 77.1859,245.34 74.6859,257.006 76,269.5C 78.4374,281.44 84.9374,290.107 95.5,295.5C 90.411,294.428 86.5776,296.095 84,300.5C 83.1708,329.174 97.0041,345.174 125.5,348.5C 118.785,363.243 116.952,378.576 120,394.5C 123.125,407.114 130.625,415.781 142.5,420.5C 128.731,430.707 122.564,444.373 124,461.5C 126.815,467.169 131.315,469.002 137.5,467C 138.931,466.535 140.097,465.701 141,464.5C 142.818,459.301 144.151,453.967 145,448.5C 149.125,440.378 155.625,435.211 164.5,433C 175.495,432.5 186.495,432.333 197.5,432.5C 191.021,433.491 184.354,433.824 177.5,433.5C 175.023,447.89 180.357,457.89 193.5,463.5C 188.999,470.161 189.999,475.827 196.5,480.5C 192.621,482.206 190.121,485.206 189,489.5C 188.501,493.821 188.334,498.154 188.5,502.5C 146.01,490.771 109.676,469.104 79.5,437.5C 83.7936,430.45 85.9602,422.784 86,414.5C 80.3131,406.991 74.3131,406.658 68,413.5C 66.2932,415.909 65.4598,418.575 65.5,421.5C 51.6803,405.223 40.347,387.223 31.5,367.5C 33.2235,360.187 36.0569,353.187 40,346.5C 43.6667,341.5 47.3333,336.5 51,331.5C 51.8538,327.375 51.5204,323.375 50,319.5C 39.4681,309.435 33.4681,297.102 32,282.5C 29.943,256.945 39.7763,237.612 61.5,224.5 Z"/></g>
<g><path style="opacity:1" fill="#63f8e9" d="M 449.5,224.5 C 452.274,225.723 454.941,227.223 457.5,229C 478.911,248.578 484.745,272.078 475,299.5C 470.372,307.939 465.205,315.939 459.5,323.5C 447.894,321.947 437.728,317.28 429,309.5C 428.814,306.964 428.314,304.631 427.5,302.5C 426.5,298.833 424.167,296.5 420.5,295.5C 417.994,293.563 416.494,290.896 416,287.5C 415.333,279.5 415.333,271.5 416,263.5C 417.48,251.902 421.647,241.569 428.5,232.5C 436.351,231.776 443.351,229.11 449.5,224.5 Z"/></g>
<g><path style="opacity:1" fill="#fdf056" d="M 334.5,233.5 C 345.37,245.375 356.037,245.375 366.5,233.5C 366.667,255.503 366.5,277.503 366,299.5C 364.979,307.067 362.479,314.067 358.5,320.5C 351.495,330.991 341.829,337.824 329.5,341C 304.877,342.451 280.21,342.951 255.5,342.5C 255.167,342.5 254.833,342.5 254.5,342.5C 244.652,331.448 245.319,320.948 256.5,311C 279.167,310.667 301.833,310.333 324.5,310C 328.974,308.192 332.141,305.026 334,300.5C 334.5,278.169 334.667,255.836 334.5,233.5 Z"/></g>
<g><path style="opacity:1" fill="#ade9f7" d="M 226.5,244.5 C 233.167,244.5 239.833,244.5 246.5,244.5C 249.23,251.023 251.563,257.69 253.5,264.5C 242.167,264.5 230.833,264.5 219.5,264.5C 221.437,257.69 223.77,251.023 226.5,244.5 Z"/></g>
<g><path style="opacity:1" fill="#be0b73" d="M 95.5,295.5 C 99.0198,296.183 101.52,298.183 103,301.5C 103.491,319.324 112.658,328.491 130.5,329C 132.333,330.167 133.833,331.667 135,333.5C 137.422,341.982 134.255,346.982 125.5,348.5C 97.0041,345.174 83.1708,329.174 84,300.5C 86.5776,296.095 90.411,294.428 95.5,295.5 Z"/></g>
<g><path style="opacity:1" fill="#27a6fe" d="M 420.5,295.5 C 424.167,296.5 426.5,298.833 427.5,302.5C 427.09,327.998 414.423,343.331 389.5,348.5C 379.505,349.498 374.838,345.164 375.5,335.5C 376.312,332.725 377.979,330.558 380.5,329C 399.104,328.061 408.604,318.228 409,299.5C 412.04,296.034 415.874,294.7 420.5,295.5 Z"/></g>
<g><path style="opacity:0.997" fill="#2ecfe2" d="M 427.5,302.5 C 428.314,304.631 428.814,306.964 429,309.5C 437.728,317.28 447.894,321.947 459.5,323.5C 459.336,326.187 459.503,328.854 460,331.5C 465.159,337.817 469.826,344.484 474,351.5C 476.17,356.846 478.003,362.179 479.5,367.5C 470.653,387.223 459.32,405.223 445.5,421.5C 444.349,411.662 439.016,407.662 429.5,409.5C 395.326,402.971 381.992,382.637 389.5,348.5C 414.423,343.331 427.09,327.998 427.5,302.5 Z"/></g>
<g><path style="opacity:0.995" fill="#02bffb" d="M 358.5,320.5 C 361.779,324.804 365.445,328.97 369.5,333C 371.407,334.122 373.407,334.955 375.5,335.5C 374.838,345.164 379.505,349.498 389.5,348.5C 381.992,382.637 395.326,402.971 429.5,409.5C 424.284,413.815 423.118,419.149 426,425.5C 427.609,429.71 429.442,433.71 431.5,437.5C 389.078,480.375 337.745,505.042 277.5,511.5C 270.167,511.5 262.833,511.5 255.5,511.5C 255.5,485.167 255.5,458.833 255.5,432.5C 261.168,461.492 278.834,477.825 308.5,481.5C 318.652,480.517 322.152,475.183 319,465.5C 317.457,463.622 315.624,462.122 313.5,461C 288.081,459.416 275.748,445.916 276.5,420.5C 274.648,402.365 281.982,389.532 298.5,382C 313.766,380.714 329.099,380.047 344.5,380C 351.505,376.826 353.672,371.659 351,364.5C 349.363,362.19 347.196,360.69 344.5,360C 330.833,359.333 317.167,359.333 303.5,360C 277.89,365.112 261.89,380.279 255.5,405.5C 255.5,384.5 255.5,363.5 255.5,342.5C 280.21,342.951 304.877,342.451 329.5,341C 341.829,337.824 351.495,330.991 358.5,320.5 Z"/></g>
<g><path style="opacity:1" fill="#bf0c73" d="M 255.5,405.5 C 255.5,414.5 255.5,423.5 255.5,432.5C 248.736,464.38 229.069,480.38 196.5,480.5C 189.999,475.827 188.999,470.161 193.5,463.5C 194.683,462.496 196.016,461.662 197.5,461C 216.759,461.131 228.925,451.965 234,433.5C 234.667,424.167 234.667,414.833 234,405.5C 229.63,392.462 220.796,384.295 207.5,381C 193.833,380.667 180.167,380.333 166.5,380C 157.263,374.913 156.263,368.58 163.5,361C 177.74,359.368 192.073,359.035 206.5,360C 232.662,364.664 248.995,379.831 255.5,405.5 Z"/></g>
<g><path style="opacity:1" fill="#1c8df2" d="M 255.5,432.5 C 255.5,423.5 255.5,414.5 255.5,405.5C 261.89,380.279 277.89,365.112 303.5,360C 317.167,359.333 330.833,359.333 344.5,360C 347.196,360.69 349.363,362.19 351,364.5C 353.672,371.659 351.505,376.826 344.5,380C 329.099,380.047 313.766,380.714 298.5,382C 281.982,389.532 274.648,402.365 276.5,420.5C 275.748,445.916 288.081,459.416 313.5,461C 315.624,462.122 317.457,463.622 319,465.5C 322.152,475.183 318.652,480.517 308.5,481.5C 278.834,477.825 261.168,461.492 255.5,432.5 Z"/></g>
<g><path style="opacity:0.98" fill="#be0b72" d="M 79.5,437.5 C 74.4897,432.488 69.823,427.155 65.5,421.5C 65.4598,418.575 66.2932,415.909 68,413.5C 74.3131,406.658 80.3131,406.991 86,414.5C 85.9602,422.784 83.7936,430.45 79.5,437.5 Z"/></g>
<g><path style="opacity:0.98" fill="#1d8ef2" d="M 445.5,421.5 C 441.177,427.155 436.51,432.488 431.5,437.5C 429.442,433.71 427.609,429.71 426,425.5C 423.118,419.149 424.284,413.815 429.5,409.5C 439.016,407.662 444.349,411.662 445.5,421.5 Z"/></g>
<g><path style="opacity:1" fill="#be0b73" d="M 197.5,432.5 C 186.495,432.333 175.495,432.5 164.5,433C 155.625,435.211 149.125,440.378 145,448.5C 144.151,453.967 142.818,459.301 141,464.5C 140.097,465.701 138.931,466.535 137.5,467C 131.315,469.002 126.815,467.169 124,461.5C 122.564,444.373 128.731,430.707 142.5,420.5C 147.921,416.745 153.921,414.245 160.5,413C 172.833,412.333 185.167,412.333 197.5,413C 199.587,413.792 201.421,414.959 203,416.5C 206.419,423.895 204.585,429.229 197.5,432.5 Z"/></g>
<g><path style="opacity:1" fill="#1c8df2" d="M 312.5,412.5 C 324.505,412.333 336.505,412.5 348.5,413C 366.638,416.129 379.138,426.296 386,443.5C 387.91,450.207 387.91,456.873 386,463.5C 381.8,467.714 376.966,468.548 371.5,466C 370.299,465.097 369.465,463.931 369,462.5C 368.829,450.024 363.329,440.857 352.5,435C 338.794,434.039 325.127,433.039 311.5,432C 306.29,427.88 305.123,422.714 308,416.5C 309.667,415.267 311.167,413.933 312.5,412.5 Z"/></g>
<g><path style="opacity:0.99" fill="#fd3c96" d="M 255.5,432.5 C 255.5,458.833 255.5,485.167 255.5,511.5C 248.167,511.5 240.833,511.5 233.5,511.5C 218.365,509.673 203.365,506.673 188.5,502.5C 188.334,498.154 188.501,493.821 189,489.5C 190.121,485.206 192.621,482.206 196.5,480.5C 229.069,480.38 248.736,464.38 255.5,432.5 Z"/></g>
</svg>
