<svg width="17" height="14" fill="none" xmlns="http://www.w3.org/2000/svg"><path d="M4.364 10.847c-1.383-.983-2.478-2.26-3.097-3.068a1.27 1.27 0 0 1 0-1.558C2.387 4.76 5.073 1.75 8.21 1.75c1.407 0 2.722.605 3.847 1.405" stroke="#AAA" stroke-width="2" stroke-linecap="round" stroke-linejoin="round"/><path d="M6.71 12.028c.487.145.992.22 1.5.222 3.136 0 5.823-3.01 6.943-4.471a1.27 1.27 0 0 0-.001-1.559 17.217 17.217 0 0 0-1.264-1.47m-4.08.665a2.25 2.25 0 1 0-3.183 3.182l3.182-3.182ZM2.21 13l12-12-12 12Z" stroke="#AAA" stroke-width="2" stroke-linecap="round" stroke-linejoin="round"/></svg>